<?xml version="1.0" encoding="UTF-8"?>
<svg width="27px" height="27px" viewBox="0 0 27 27" version="1.1" xmlns="http://www.w3.org/2000/svg" xmlns:xlink="http://www.w3.org/1999/xlink">
    <!-- Generator: Sketch 59.1 (86144) - https://sketch.com -->
    <title>ic/question_answer</title>
    <desc>Created with Sketch.</desc>
    <defs>
        <path d="M25.3,5.8 L22.7,5.8 L22.7,17.5 L5.8,17.5 L5.8,20.1 C5.8,20.815 6.385,21.4 7.1,21.4 L21.4,21.4 L26.6,26.6 L26.6,7.1 C26.6,6.385 26.015,5.8 25.3,5.8 Z M20.1,13.6 L20.1,1.9 C20.1,1.185 19.515,0.6 18.8,0.6 L1.9,0.6 C1.185,0.6 0.6,1.185 0.6,1.9 L0.6,20.1 L5.8,14.9 L18.8,14.9 C19.515,14.9 20.1,14.315 20.1,13.6 Z" id="path-1"></path>
    </defs>
    <g id="Page-1" stroke="none" stroke-width="1" fill="none" fill-rule="evenodd">
        <g id="Desktop-HD-Copy-2" transform="translate(-37.000000, -549.000000)">
            <g id="ic/question_answer" transform="translate(37.000000, 549.000000)">
                <g>
                    <mask id="mask-2" fill="white">
                        <use xlink:href="#path-1"></use>
                    </mask>
                    <use id="Shape" fill="#050B21" fill-rule="nonzero" xlink:href="#path-1"></use>
                </g>
            </g>
        </g>
    </g>
</svg>