<?xml version="1.0" encoding="UTF-8"?>
<svg width="16px" height="16px" viewBox="0 0 40 40" version="1.1" xmlns="http://www.w3.org/2000/svg" xmlns:xlink="http://www.w3.org/1999/xlink">
    <title>Group</title>
    <g id="Page-1" stroke="none" stroke-width="1" fill="none" fill-rule="evenodd">
        <g id="Group">
            <circle id="Oval" stroke="currentColor" stroke-width="2" cx="20" cy="20" r="19"></circle>
            <path d="M20,16 C22.209139,16 24,17.790861 24,20 C24,22.209139 22.209139,24 20,24 C17.790861,24 16,22.209139 16,20 C16,17.790861 17.790861,16 20,16 Z M20,18 C18.8954305,18 18,18.8954305 18,20 C18,21.1045695 18.8954305,22 20,22 C21.1045695,22 22,21.1045695 22,20 C22,18.8954305 21.1045695,18 20,18 Z" id="Combined-Shape" fill="currentColor"></path>
            <path d="M12,8 C14.209139,8 16,9.790861 16,12 C16,14.209139 14.209139,16 12,16 C9.790861,16 8,14.209139 8,12 C8,9.790861 9.790861,8 12,8 Z M12,10 C10.8954305,10 10,10.8954305 10,12 C10,13.1045695 10.8954305,14 12,14 C13.1045695,14 14,13.1045695 14,12 C14,10.8954305 13.1045695,10 12,10 Z" id="Combined-Shape-Copy" fill="currentColor"></path>
            <path d="M28,8 C30.209139,8 32,9.790861 32,12 C32,14.209139 30.209139,16 28,16 C25.790861,16 24,14.209139 24,12 C24,9.790861 25.790861,8 28,8 Z M28,10 C26.8954305,10 26,10.8954305 26,12 C26,13.1045695 26.8954305,14 28,14 C29.1045695,14 30,13.1045695 30,12 C30,10.8954305 29.1045695,10 28,10 Z" id="Combined-Shape-Copy-3" fill="currentColor"></path>
            <path d="M28,24 C30.209139,24 32,25.790861 32,28 C32,30.209139 30.209139,32 28,32 C25.790861,32 24,30.209139 24,28 C24,25.790861 25.790861,24 28,24 Z M28,26 C26.8954305,26 26,26.8954305 26,28 C26,29.1045695 26.8954305,30 28,30 C29.1045695,30 30,29.1045695 30,28 C30,26.8954305 29.1045695,26 28,26 Z" id="Combined-Shape-Copy-5" fill="currentColor"></path>
            <path d="M12,24 C14.209139,24 16,25.790861 16,28 C16,30.209139 14.209139,32 12,32 C9.790861,32 8,30.209139 8,28 C8,25.790861 9.790861,24 12,24 Z M12,26 C10.8954305,26 10,26.8954305 10,28 C10,29.1045695 10.8954305,30 12,30 C13.1045695,30 14,29.1045695 14,28 C14,26.8954305 13.1045695,26 12,26 Z" id="Combined-Shape-Copy-7" fill="currentColor"></path>
            <circle id="Oval" fill="currentColor" cx="28" cy="20" r="2"></circle>
            <circle id="Oval-Copy-3" fill="currentColor" cx="20" cy="12" r="2"></circle>
            <circle id="Oval-Copy-4" fill="currentColor" cx="12" cy="20" r="2"></circle>
            <circle id="Oval-Copy-2" fill="currentColor" cx="20" cy="28" r="2"></circle>
        </g>
    </g>
</svg>