
<svg width="40" height="41" viewBox="0 0 40 41" fill="none" xmlns="http://www.w3.org/2000/svg">
<circle cx="20" cy="20.5" r="20" fill="white"/>
<g clip-path="url(#clip0)">
<path d="M18.7102 25.4426C18.2613 25.4115 17.8124 25.416 17.3769 25.3449C16.8036 25.2515 16.2169 25.1537 15.6702 24.9715C14.3991 24.5404 13.6969 23.5671 13.3102 22.3315C13.048 21.5049 12.968 20.6515 12.968 19.7893C12.9636 18.5804 12.9813 17.376 12.9591 16.1671C12.9502 15.7493 12.9013 15.3226 12.7991 14.9182C12.6658 14.3849 12.3769 14.2026 11.8258 14.2026C11.5102 14.1982 11.1947 14.1982 10.8613 14.1982C10.8613 13.7982 10.8613 13.416 10.8613 13.0382C10.8747 13.0293 10.888 13.0115 10.9013 13.0115C11.688 13.0115 12.4747 12.9804 13.2569 13.0204C14.1502 13.0693 14.728 13.5804 14.9902 14.4604C15.1591 15.0249 15.2213 15.6071 15.2169 16.1937C15.2169 17.3849 15.208 18.5804 15.2213 19.7715C15.2302 20.5982 15.3236 21.4115 15.6169 22.1893C15.9058 22.9582 16.4213 23.5182 17.1991 23.8026C17.6836 23.976 18.1858 24.1049 18.7102 24.2604C18.7102 20.8737 18.7102 17.5537 18.7102 14.2115C18.0258 14.2115 17.3369 14.2115 16.6347 14.2115C16.6347 13.8026 16.6347 13.416 16.6347 13.016C18.7858 13.016 20.928 13.016 23.088 13.016C23.088 13.4071 23.088 13.7893 23.088 14.1937C22.3991 14.1937 21.7147 14.1937 21.008 14.1937C21.008 17.536 21.008 20.856 21.008 24.1982C21.0702 24.1937 21.1324 24.1982 21.1947 24.1849C21.4169 24.136 21.6436 24.0826 21.8658 24.0337C23.288 23.7093 24.0569 22.7849 24.3324 21.3849C24.4969 20.536 24.5058 19.6782 24.5058 18.8204C24.5058 17.9449 24.5058 17.0737 24.5058 16.1982C24.5058 15.6115 24.5547 15.0293 24.7369 14.4649C25.0569 13.4693 25.688 13.0071 26.7369 13.0071C27.3724 13.0071 28.0124 13.0071 28.648 13.0071C28.7147 13.0071 28.7769 13.0115 28.8613 13.016C28.8613 13.4071 28.8613 13.7849 28.8613 14.2026C28.528 14.2026 28.1902 14.2026 27.8524 14.2026C27.3769 14.2026 27.128 14.3715 26.9547 14.8115C26.7724 15.2782 26.7591 15.7626 26.7547 16.256C26.7502 17.6649 26.7547 19.0693 26.728 20.4782C26.7147 21.1804 26.5813 21.8737 26.3502 22.5449C25.8302 24.0693 24.7369 24.9226 23.1947 25.2115C22.5502 25.3315 21.888 25.3582 21.2347 25.4249C21.1636 25.4337 21.0924 25.4337 21.008 25.4382C21.008 26.4426 21.008 27.4337 21.008 28.4471C21.6969 28.4471 22.3858 28.4471 23.088 28.4471C23.088 28.8471 23.088 29.2204 23.088 29.6115C20.9458 29.6115 18.7947 29.6115 16.6347 29.6115C16.6347 29.2337 16.6347 28.8604 16.6347 28.4604C17.328 28.4604 18.0169 28.4604 18.7191 28.4604C18.7102 27.4382 18.7102 26.4426 18.7102 25.4426Z" fill="#1A1B2A"/>
</g>
<defs>
<clipPath id="clip0">
<rect width="19.1778" height="17.7" fill="white" transform="translate(10.8613 12)"/>
</clipPath>
</defs>
</svg>
