
<svg xmlns="http://www.w3.org/2000/svg" xmlns:xlink="http://www.w3.org/1999/xlink" width="44" height="44" viewBox="0 0 44 44">
    <defs>
        <filter id="p26g9qxkga" width="135.5%" height="140.7%" x="-17.7%" y="-13%" filterUnits="objectBoundingBox">
            <feOffset dy="2" in="SourceAlpha" result="shadowOffsetOuter1"/>
            <feGaussianBlur in="shadowOffsetOuter1" result="shadowBlurOuter1" stdDeviation="1.5"/>
            <feColorMatrix in="shadowBlurOuter1" values="0 0 0 0 0 0 0 0 0 0 0 0 0 0 0 0 0 0 1 0"/>
        </filter>
        <path id="sevohpyr6b" d="M35.326 11.002l2.674.001-8.68 15.132-.157-.135c-.997-.852-1.112-1.671-.399-2.828 1.417-2.289 2.787-4.659 4.113-6.95.453-.783.905-1.566 1.36-2.346.126-.218.234-.443.36-.705.027-.057.054-.116.084-.176-.533 0-1.057 0-1.576-.002-1.898-.005-3.691-.01-5.49.035-.23.006-.603.34-.768.621-2.328 3.957-4.803 8.214-7.79 13.398-.167.293-.26.65-.197.764.906 1.626 1.84 3.224 2.83 4.915l.764 1.307.553-.95.12-.205c.381-.647.786-1.321 1.85-3.094.088-.147.178-.29.266-.432.436-.706.845-1.214.828-2.129-.016-.802-1.537-2.718-1.896-3.256-.139-.21-.284-.428-.417-.653-.591-1.006-.483-1.862.334-2.621l.157-.147.107.185.675 1.158c.655 1.12 2.498 4.104 3.095 5.197.156.285.147.794-.019 1.087-1.407 2.483-2.827 4.94-4.33 7.537L22.454 38l-1.363-2.364c-1.495-2.596-2.91-5.047-4.306-7.538-.17-.302-.08-.853.107-1.179 2.857-4.978 5.821-10.091 8.81-15.199.194-.329.62-.686.973-.69 2.833-.032 5.661-.032 8.65-.028zm-17 .028c.352.003.778.362.972.691.478.816.952 1.636 1.424 2.455l.518.896c.374.647.374 1.45 0 2.097l-.518.895-.149-.254c-.336-.577-.67-1.155-1.005-1.733-.47-.81-.94-1.62-1.415-2.428-.165-.282-.536-.616-.767-.621-1.799-.046-3.589-.04-5.491-.035l-1.576.003c.03.059.057.118.084.174.126.263.235.489.36.706.464.796.927 1.594 1.39 2.393 1.315 2.275 2.677 4.63 4.083 6.903.714 1.156.599 1.975-.398 2.828l-.157.135L7 11.003l2.673-.001c2.994-.002 5.819-.004 8.653.028z"/>
    </defs>
    <g fill="none" fill-rule="evenodd">
        <g>
            <g>
                <g transform="translate(-418.000000, -222.000000) translate(418.000000, 222.000000)">
                    <use fill="#000" filter="url(#p26g9qxkga)" xlink:href="#sevohpyr6b"/>
                    <use fill="#FFE646" xlink:href="#sevohpyr6b"/>
                </g>
            </g>
        </g>
    </g>
</svg>
